# xmcd
#
# Track frame offsets:
# 150
# 38473
# 69914
# 86051
# 100631
# 135663
# 168871
# 206884
# 220235
# 249761
# 271778
# 290272
# 309580
# 324998
#
# Disc length: 4545 seconds
#
# Revision: 0
# Processed by: cddbd v1.5.2PL0 Copyright (c) Steve Scherf et al.
# Submitted via: Audion 3.0.2 (http://www.panic.com/audion/)
#
DISCID=b711bf0e
DTITLE=dj nanou-house - dj nanou-house
DYEAR=1900
DGENRE=
TTITLE0=dj nanou-house
TTITLE1=dj nanou-house
TTITLE2=dj nanou-house
TTITLE3=dj nanou-house
TTITLE4=dj nanou-house
TTITLE5=dj nanou-house
TTITLE6=dj nanou-house
TTITLE7=dj nanou-house
TTITLE8=dj nanou-house
TTITLE9=dj nanou-house
TTITLE10=dj nanou-house
TTITLE11=dj nanou-house
TTITLE12=dj nanou-house
TTITLE13=dj nanou-house
EXTD=
EXTT0=
EXTT1=
EXTT2=
EXTT3=
EXTT4=
EXTT5=
EXTT6=
EXTT7=
EXTT8=
EXTT9=
EXTT10=
EXTT11=
EXTT12=
EXTT13=
PLAYORDER=
